<svg width="223" height="57" viewBox="0 0 223 57" fill="none" xmlns="http://www.w3.org/2000/svg">
<path d="M14.0879 17.928L15.4319 19.2C14.6959 20.208 13.7279 21.008 12.5279 21.6C11.3439 22.176 10.0399 22.464 8.61593 22.464C7.38393 22.464 6.23993 22.24 5.18393 21.792C4.14393 21.344 3.23193 20.72 2.44793 19.92C1.67993 19.104 1.07993 18.152 0.647932 17.064C0.215932 15.976 -6.82771e-05 14.792 -6.82771e-05 13.512C-6.82771e-05 12.232 0.215932 11.048 0.647932 9.96002C1.09593 8.85602 1.71193 7.90402 2.49593 7.10402C3.27993 6.28802 4.19193 5.65602 5.23193 5.20802C6.28793 4.76002 7.43193 4.53602 8.66393 4.53602C10.0879 4.53602 11.3839 4.83202 12.5519 5.42402C13.7359 6.00002 14.6959 6.79202 15.4319 7.80002L14.0879 9.07202C13.4959 8.19202 12.7439 7.49602 11.8319 6.98402C10.9199 6.47202 9.86393 6.21602 8.66393 6.21602C7.38393 6.21602 6.23193 6.53602 5.20793 7.17602C4.19993 7.80002 3.39993 8.66402 2.80793 9.76802C2.21593 10.856 1.91993 12.104 1.91993 13.512C1.91993 14.904 2.21593 16.152 2.80793 17.256C3.39993 18.344 4.19993 19.208 5.20793 19.848C6.23193 20.472 7.38393 20.784 8.66393 20.784C9.86393 20.784 10.9199 20.528 11.8319 20.016C12.7439 19.504 13.4959 18.808 14.0879 17.928ZM29.5336 22.08H27.6856V6.33602H29.5336V22.08ZM35.2456 6.57602H21.9736V4.92002H35.2456V6.57602ZM45.3727 22.464C44.0927 22.464 42.9087 22.24 41.8207 21.792C40.7487 21.344 39.8047 20.72 38.9887 19.92C38.1887 19.104 37.5647 18.152 37.1167 17.064C36.6847 15.96 36.4687 14.768 36.4687 13.488C36.4687 12.208 36.6847 11.024 37.1167 9.93602C37.5647 8.84802 38.1887 7.90402 38.9887 7.10402C39.8047 6.28802 40.7487 5.65602 41.8207 5.20802C42.9087 4.76002 44.0927 4.53602 45.3727 4.53602C46.6527 4.53602 47.8287 4.76002 48.9007 5.20802C49.9887 5.65602 50.9327 6.28802 51.7327 7.10402C52.5487 7.90402 53.1727 8.84802 53.6047 9.93602C54.0527 11.024 54.2767 12.208 54.2767 13.488C54.2767 14.768 54.0527 15.96 53.6047 17.064C53.1727 18.152 52.5487 19.104 51.7327 19.92C50.9327 20.72 49.9887 21.344 48.9007 21.792C47.8287 22.24 46.6527 22.464 45.3727 22.464ZM45.3727 20.784C46.7487 20.784 47.9567 20.472 48.9967 19.848C50.0527 19.224 50.8767 18.36 51.4687 17.256C52.0607 16.152 52.3567 14.896 52.3567 13.488C52.3567 12.08 52.0607 10.832 51.4687 9.74402C50.8767 8.64002 50.0527 7.77602 48.9967 7.15202C47.9567 6.52802 46.7487 6.21602 45.3727 6.21602C44.0127 6.21602 42.8047 6.52802 41.7487 7.15202C40.6927 7.77602 39.8687 8.64002 39.2767 9.74402C38.6847 10.832 38.3887 12.08 38.3887 13.488C38.3887 14.896 38.6847 16.152 39.2767 17.256C39.8687 18.36 40.6927 19.224 41.7487 19.848C42.8047 20.472 44.0127 20.784 45.3727 20.784ZM57.8662 22.08V4.92002H59.7142V20.736L59.4262 20.448H64.7782C65.9622 20.448 66.8822 20.16 67.5382 19.584C68.2102 19.008 68.5462 18.208 68.5462 17.184C68.5462 16.16 68.2102 15.368 67.5382 14.808C66.8822 14.232 65.9622 13.944 64.7782 13.944H58.8502V12.312H64.7782C65.9302 12.312 66.9302 12.512 67.7782 12.912C68.6262 13.312 69.2822 13.88 69.7462 14.616C70.2102 15.336 70.4422 16.192 70.4422 17.184C70.4422 18.16 70.2022 19.016 69.7222 19.752C69.2582 20.488 68.6022 21.064 67.7542 21.48C66.9062 21.88 65.9142 22.08 64.7782 22.08H57.8662ZM59.1862 6.57602V4.92002H69.0982V6.57602H59.1862ZM81.7242 22.464C80.4442 22.464 79.2602 22.24 78.1722 21.792C77.1002 21.344 76.1562 20.72 75.3402 19.92C74.5402 19.104 73.9162 18.152 73.4682 17.064C73.0362 15.96 72.8202 14.768 72.8202 13.488C72.8202 12.208 73.0362 11.024 73.4682 9.93602C73.9162 8.84802 74.5402 7.90402 75.3402 7.10402C76.1562 6.28802 77.1002 5.65602 78.1722 5.20802C79.2602 4.76002 80.4442 4.53602 81.7242 4.53602C83.0042 4.53602 84.1802 4.76002 85.2522 5.20802C86.3402 5.65602 87.2842 6.28802 88.0842 7.10402C88.9002 7.90402 89.5242 8.84802 89.9562 9.93602C90.4042 11.024 90.6282 12.208 90.6282 13.488C90.6282 14.768 90.4042 15.96 89.9562 17.064C89.5242 18.152 88.9002 19.104 88.0842 19.92C87.2842 20.72 86.3402 21.344 85.2522 21.792C84.1802 22.24 83.0042 22.464 81.7242 22.464ZM81.7242 20.784C83.1002 20.784 84.3082 20.472 85.3482 19.848C86.4042 19.224 87.2282 18.36 87.8202 17.256C88.4122 16.152 88.7082 14.896 88.7082 13.488C88.7082 12.08 88.4122 10.832 87.8202 9.74402C87.2282 8.64002 86.4042 7.77602 85.3482 7.15202C84.3082 6.52802 83.1002 6.21602 81.7242 6.21602C80.3642 6.21602 79.1562 6.52802 78.1002 7.15202C77.0442 7.77602 76.2202 8.64002 75.6282 9.74402C75.0362 10.832 74.7402 12.08 74.7402 13.488C74.7402 14.896 75.0362 16.152 75.6282 17.256C76.2202 18.36 77.0442 19.224 78.1002 19.848C79.1562 20.472 80.3642 20.784 81.7242 20.784ZM94.2177 22.08V4.92002H96.0657V20.904H94.9857L105.882 4.92002H107.946V22.08H106.098V6.21602H107.058L96.2097 22.08H94.2177ZM100.962 3.12002C99.8737 3.12002 98.9617 2.84802 98.2257 2.30402C97.5057 1.74402 97.0977 0.976017 97.0017 1.66893e-05H98.6577C98.7537 0.672017 99.0017 1.16802 99.4017 1.48802C99.8177 1.80802 100.338 1.96802 100.962 1.96802C101.57 1.96802 102.074 1.80802 102.474 1.48802C102.89 1.16802 103.146 0.672017 103.242 1.66893e-05H104.898C104.802 0.976017 104.394 1.74402 103.674 2.30402C102.954 2.84802 102.05 3.12002 100.962 3.12002ZM116.802 22.08V20.496H118.746C119.274 20.496 119.714 20.424 120.066 20.28C120.418 20.12 120.73 19.864 121.002 19.512C121.29 19.144 121.586 18.648 121.89 18.024L128.322 4.92002H130.266L123.45 18.576C123.002 19.472 122.57 20.176 122.154 20.688C121.738 21.2 121.266 21.56 120.738 21.768C120.21 21.976 119.546 22.08 118.746 22.08H116.802ZM122.25 18.216L115.386 4.92002H117.33L123.714 17.376L122.25 18.216ZM146.662 22.464C145.43 22.464 144.294 22.24 143.254 21.792C142.214 21.344 141.302 20.72 140.518 19.92C139.75 19.104 139.15 18.152 138.718 17.064C138.286 15.96 138.07 14.768 138.07 13.488C138.07 12.208 138.286 11.024 138.718 9.93602C139.15 8.84802 139.75 7.90402 140.518 7.10402C141.302 6.28802 142.214 5.65602 143.254 5.20802C144.294 4.76002 145.43 4.53602 146.662 4.53602C147.894 4.53602 149.03 4.76002 150.07 5.20802C151.11 5.65602 152.014 6.28802 152.782 7.10402C153.566 7.90402 154.166 8.84802 154.582 9.93602C155.014 11.024 155.23 12.208 155.23 13.488C155.23 14.768 155.014 15.96 154.582 17.064C154.166 18.152 153.566 19.104 152.782 19.92C152.014 20.72 151.11 21.344 150.07 21.792C149.03 22.24 147.894 22.464 146.662 22.464ZM133.03 22.08V4.92002H134.878V22.08H133.03ZM134.638 13.992V12.336H139.198V13.992H134.638ZM146.662 20.784C147.974 20.784 149.126 20.472 150.118 19.848C151.11 19.224 151.886 18.36 152.446 17.256C153.022 16.152 153.31 14.896 153.31 13.488C153.31 12.08 153.022 10.832 152.446 9.74402C151.886 8.64002 151.11 7.77602 150.118 7.15202C149.126 6.52802 147.974 6.21602 146.662 6.21602C145.366 6.21602 144.214 6.52802 143.206 7.15202C142.198 7.77602 141.406 8.64002 140.83 9.74402C140.27 10.832 139.99 12.08 139.99 13.488C139.99 14.896 140.27 16.152 140.83 17.256C141.406 18.36 142.198 19.224 143.206 19.848C144.214 20.472 145.366 20.784 146.662 20.784ZM164.018 22.08H162.17V6.33602H164.018V22.08ZM169.73 6.57602H156.458V4.92002H169.73V6.57602ZM184.754 22.08V4.92002H186.602V22.08H184.754ZM174.722 22.08H172.874V4.92002H174.722V22.08ZM174.482 13.992V12.336H184.994V13.992H174.482ZM202.507 22.08H191.155V4.92002H202.507V6.55202H193.003V20.448H202.507V22.08ZM202.051 14.112H192.763V12.48H202.051V14.112ZM217.226 22.08H205.874V4.92002H217.226V6.55202H207.722V20.448H217.226V22.08ZM216.77 14.112H207.482V12.48H216.77V14.112ZM220.857 24.984H219.657C220.009 24.472 220.289 23.92 220.497 23.328C220.705 22.752 220.793 22.256 220.761 21.84L220.953 22.248C220.585 22.248 220.273 22.128 220.017 21.888C219.761 21.632 219.633 21.32 219.633 20.952C219.633 20.584 219.753 20.272 219.993 20.016C220.249 19.76 220.553 19.632 220.905 19.632C221.321 19.632 221.657 19.776 221.913 20.064C222.185 20.352 222.321 20.728 222.321 21.192C222.321 21.576 222.249 21.992 222.105 22.44C221.977 22.904 221.801 23.352 221.577 23.784C221.353 24.232 221.113 24.632 220.857 24.984ZM50.4715 45.648C48.5835 45.648 47.1195 45.192 46.0795 44.28C45.0395 43.352 44.5195 42.04 44.5195 40.344V34.92H46.3675V40.152C46.3675 41.368 46.7435 42.312 47.4955 42.984C48.2475 43.64 49.2875 43.968 50.6155 43.968C51.5435 43.968 52.4475 43.816 53.3275 43.512C54.2075 43.192 54.9355 42.776 55.5115 42.264L56.2555 43.56C55.5195 44.248 54.6555 44.768 53.6635 45.12C52.6875 45.472 51.6235 45.648 50.4715 45.648ZM55.1995 52.08V34.92H57.0475V52.08H55.1995ZM72.9565 52.08H61.6045V34.92H72.9565V36.552H63.4525V50.448H72.9565V52.08ZM72.5005 44.112H63.2125V42.48H72.5005V44.112ZM85.8032 50.64H84.4112L77.4992 36.192H78.1232V52.08H76.3232V34.92H78.7472L85.7072 49.512H84.5552L91.5152 34.92H93.8912V52.08H92.0912V36.192H92.7152L85.8032 50.64ZM102.584 51.36V50.424H103.184C103.632 50.424 103.984 50.136 104.24 49.56C104.512 48.968 104.72 48.04 104.864 46.776L106.232 34.92H116.72V51.36H114.872V35.352L116.144 36.576H106.832L108.008 35.352L106.64 47.016C106.528 47.944 106.368 48.736 106.16 49.392C105.952 50.032 105.632 50.52 105.2 50.856C104.768 51.192 104.16 51.36 103.376 51.36H102.584ZM101.576 56.256V50.424H118.496V56.256H116.696V50.76L118.208 52.08H102.872L103.376 50.76V56.256H101.576ZM129.338 52.464C128.058 52.464 126.874 52.24 125.786 51.792C124.714 51.344 123.77 50.72 122.954 49.92C122.154 49.104 121.53 48.152 121.082 47.064C120.65 45.96 120.434 44.768 120.434 43.488C120.434 42.208 120.65 41.024 121.082 39.936C121.53 38.848 122.154 37.904 122.954 37.104C123.77 36.288 124.714 35.656 125.786 35.208C126.874 34.76 128.058 34.536 129.338 34.536C130.618 34.536 131.794 34.76 132.866 35.208C133.954 35.656 134.898 36.288 135.698 37.104C136.514 37.904 137.138 38.848 137.57 39.936C138.018 41.024 138.242 42.208 138.242 43.488C138.242 44.768 138.018 45.96 137.57 47.064C137.138 48.152 136.514 49.104 135.698 49.92C134.898 50.72 133.954 51.344 132.866 51.792C131.794 52.24 130.618 52.464 129.338 52.464ZM129.338 50.784C130.714 50.784 131.922 50.472 132.962 49.848C134.018 49.224 134.842 48.36 135.434 47.256C136.026 46.152 136.322 44.896 136.322 43.488C136.322 42.08 136.026 40.832 135.434 39.744C134.842 38.64 134.018 37.776 132.962 37.152C131.922 36.528 130.714 36.216 129.338 36.216C127.978 36.216 126.77 36.528 125.714 37.152C124.658 37.776 123.834 38.64 123.242 39.744C122.65 40.832 122.354 42.08 122.354 43.488C122.354 44.896 122.65 46.152 123.242 47.256C123.834 48.36 124.658 49.224 125.714 49.848C126.77 50.472 127.978 50.784 129.338 50.784ZM151.311 50.64H149.919L143.007 36.192H143.631V52.08H141.831V34.92H144.255L151.215 49.512H150.063L157.023 34.92H159.399V52.08H157.599V36.192H158.223L151.311 50.64ZM174.996 47.28H165.66V45.648H174.996V47.28ZM178.26 52.08H176.316L169.956 36.024H170.772L164.412 52.08H162.54L169.404 34.92H171.396L178.26 52.08Z" fill="black"/>
</svg>
